<svg xmlns="http://www.w3.org/2000/svg" viewBox="0 0 1000 324" fill="#1434CB">
  <path d="M651.19 0.13L564.01 208.51L520.48 25.69C515.9 5.96 501.63 0 484.55 0H331.66L329.05 11.14C360.53 17.63 395.75 27.58 414.71 38.62C425.63 45.12 428.69 51.61 432.64 64.56L513.14 323.39H632.21L782.71 0H651.19V0.13ZM850.87 0H737.24L651.96 323.39H765.59L850.87 0ZM954.05 206.81C954.05 175.94 983.97 159.16 1000 148.22C1000 148.22 1000 148.22 1000 148.22C984.86 136.18 975.71 127.98 975.71 115.94C975.71 101.19 988.81 87.54 1000 81.05V81.05C982.31 71.1 957.11 65.71 929.74 65.71C853.93 65.71 799.51 108.35 799.51 166.09C799.51 244.33 891.35 249.72 891.35 279.49C891.35 289.44 882.2 298.74 862.19 298.74C833.03 298.74 798.62 284.88 769.46 266.45L744.26 323.39C773.42 339.07 817.84 323.39 817.84 323.39C886.15 323.39 954.05 282.07 954.05 206.81ZM250.27 0L129.42 323.39H10.35L130.31 11.14C134.26 4.65 140.62 0 149.77 0H250.27Z"/>
</svg>